<?xml version="1.0" standalone="no"?><!DOCTYPE svg PUBLIC "-//W3C//DTD SVG 1.1//EN" "http://www.w3.org/Graphics/SVG/1.1/DTD/svg11.dtd"><svg t="1625108408945" class="icon" viewBox="0 0 1024 1024" version="1.1" xmlns="http://www.w3.org/2000/svg" p-id="1433" xmlns:xlink="http://www.w3.org/1999/xlink" width="200" height="200"><defs><style type="text/css"></style></defs><path d="M301.08239 92.663803h422.734869c25.590004 0 46.281921-20.691917 46.281921-46.281921 0-25.689965-20.691917-46.381882-46.281921-46.381882H301.08239c-25.590004 0-46.281921 20.691917-46.281921 46.381882 0 25.590004 20.691917 46.281921 46.281921 46.281921zM950.128856 166.634908H74.770793c-25.590004 0-46.381882 20.691917-46.381882 46.381882 0 25.590004 20.791878 46.281921 46.381882 46.281921h68.973057v648.546662c0 63.875049 51.979695 115.954705 115.854744 115.954705h505.70246c63.875049 0 115.954705-51.979695 115.954705-115.954705V259.19875h68.973058c25.689965 0 46.381882-20.691917 46.381882-46.281921-0.099961-25.590004-20.791878-46.281921-46.481843-46.281921zM788.491995 907.745412c0 12.695041-10.695822 23.190941-23.290902 23.190941H259.598594c-12.495119 0-23.190941-10.4959-23.190941-23.190941V259.19875h552.184303v648.546662z" fill="#1296DB" p-id="1434"></path><path d="M392.046857 835.773526c25.689965 0 46.381882-20.791878 46.381882-46.381882V379.351816c0-25.590004-20.691917-46.281921-46.381882-46.281921-25.590004 0-46.281921 20.691917-46.281921 46.281921v410.039828c0.099961 25.590004 20.691917 46.381882 46.281921 46.381882zM631.253417 835.773526c25.590004 0 46.381882-20.791878 46.381882-46.381882V379.351816c0-25.590004-20.791878-46.281921-46.381882-46.281921-25.689965 0-46.381882 20.691917-46.381882 46.281921v410.039828c0.099961 25.590004 20.691917 46.381882 46.381882 46.381882z" fill="#1296DB" p-id="1435"></path></svg>