<?xml version="1.0" standalone="no"?><!DOCTYPE svg PUBLIC "-//W3C//DTD SVG 1.1//EN" "http://www.w3.org/Graphics/SVG/1.1/DTD/svg11.dtd"><svg t="1625108215093" class="icon" viewBox="0 0 1024 1024" version="1.1" xmlns="http://www.w3.org/2000/svg" p-id="1129" xmlns:xlink="http://www.w3.org/1999/xlink" width="200" height="200"><defs><style type="text/css"></style></defs><path d="M919.9 461.7c-27.7 0-50 21.8-50 48.8v373.3c0 13.3-11.4 24.5-24.9 24.5H152.8c-13.6 0-25.1-11.2-25.1-24.5V137.2c0-13.3 11.5-24.5 25.1-24.5h372c27.5 0 49.9-21.8 49.9-48.8S552.3 15 524.8 15h-372C83.9 15 28 69.8 28 137.2v746.7c0 67.4 55.9 122.1 124.8 122.1H845c68.8 0 124.7-54.7 124.7-122.1V510.5c0.1-26.9-22.3-48.8-49.8-48.8z" fill="#1296DB" p-id="1130"></path><path d="M1007.1 26.3c-19.8-16.9-49.6-14.6-66.5 5.3L380.7 688c-17 19.8-14.6 49.6 5.2 66.5 8.9 7.6 19.7 11.3 30.6 11.3 13.4 0 26.6-5.6 35.9-16.5l560-656.4c16.9-19.9 14.5-49.6-5.3-66.6z" fill="#1296DB" p-id="1131"></path></svg>